<svg xmlns="http://www.w3.org/2000/svg" viewBox="0 0 1000 1000"><title>G+EArtboard 4</title><g id="Layer_5" data-name="Layer 5"><path d="M934.5,445q0,66.46-18.06,118.95t-50.67,88.63a216.15,216.15,0,0,1-76.32,54.79Q745.77,726,695.67,726q-46.59,0-76.31-20.23T585,652h-4.66Q564,678.6,529,702.3T441.5,726q-39.66,0-70.58-14.56a149.92,149.92,0,0,1-52.51-40.77q-21.59-26.2-33.25-62.33T273.5,529.12A301.57,301.57,0,0,1,289.25,433q15.75-47.19,45.5-83.88a241.2,241.2,0,0,1,70.59-59.42Q446.17,267,497.53,267q44.34,0,73.52,18.64t37.33,44.27h1.17l8.17-39.68H743.86l-36.19,183q-5.83,28-10.5,53.63T692.5,570q0,16.34,7,29.16T726.16,612q34.8,0,62.07-40.27t27.27-122q0-67.69-22.17-119.63T730.89,243.2q-40.26-35-95.69-53.11T513.25,172Q442,172,383.12,197.08T282.19,265.89q-42,43.74-65.36,104.39T193.5,500.92q0,74.66,24.5,134.13t69.44,101.48q44.93,42,106.2,64.74T528.42,824q84,0,150-26.25a387,387,0,0,0,118.45-74.11l73.53,81.69A413.72,413.72,0,0,1,712.22,903q-90.45,31-196.63,31-99.21,0-182.06-32.08T191.25,812.67Q131.81,755.5,98.66,675.59T65.5,501.17q0-93.33,35.58-172.67t96.23-137.66Q258,132.51,339.61,99.25T514.58,66a526,526,0,0,1,158,23.91q76.41,23.9,134.15,71.71T899.5,280Q934.5,350.52,934.5,445Zm-360,26a192.6,192.6,0,0,0-2.92-33.83A95.67,95.67,0,0,0,561.67,408a52.62,52.62,0,0,0-19.81-20.41Q529,380,509.23,380a63.42,63.42,0,0,0-39.62,13.42q-17.49,13.41-30.31,35a186,186,0,0,0-19.82,48.42,208.22,208.22,0,0,0-7,52.49,120.18,120.18,0,0,0,13.41,55.42Q439.3,611,476.59,611q25.65,0,44.29-13.41a103.77,103.77,0,0,0,30.31-34.42,178.56,178.56,0,0,0,17.48-45.5A202.06,202.06,0,0,0,574.5,471Z"/></g></svg>