<svg xmlns="http://www.w3.org/2000/svg" viewBox="0 0 84 84.041">
  <defs>
    <style>
      .cls-1 {
        fill: #fff;
      }

      .cls-2 {
        fill: #1b1f23;
        fill-rule: evenodd;
      }
    </style>
  </defs>
  <g id="github" transform="translate(-1581 -879.959)">
    <circle id="Ellipse_1" data-name="Ellipse 1" class="cls-1" cx="42" cy="42" r="42" transform="translate(1581 880)"/>
    <path id="Octicons-mark-github" class="cls-2" d="M42,0A42,42,0,0,0,28.717,81.848c2.1.367,2.888-.892,2.888-2,0-1-.052-4.3-.052-7.822C21,73.973,18.27,69.457,17.43,67.095c-.472-1.207-2.52-4.935-4.3-5.932-1.47-.787-3.57-2.73-.052-2.783,3.307-.052,5.67,3.045,6.458,4.305,3.78,6.353,9.818,4.568,12.233,3.465a8.835,8.835,0,0,1,2.678-5.618C25.1,59.482,15.33,55.86,15.33,39.8a16.345,16.345,0,0,1,4.305-11.288,15.092,15.092,0,0,1,.42-11.13s3.518-1.1,11.55,4.305a39.6,39.6,0,0,1,21,0c8.032-5.46,11.55-4.305,11.55-4.305a15.092,15.092,0,0,1,.42,11.13A16.251,16.251,0,0,1,68.88,39.8c0,16.117-9.818,19.687-19.163,20.737,1.522,1.312,2.835,3.832,2.835,7.77,0,5.618-.053,10.132-.053,11.55,0,1.1.788,2.415,2.888,2A42.022,42.022,0,0,0,42,0Z" transform="translate(1581 879.959)"/>
  </g>
</svg>
