<svg xmlns="http://www.w3.org/2000/svg" viewBox="0 0 1000 1000"><title>InstaArtboard 2</title><g id="Layer_4" data-name="Layer 4"><path d="M696.69,49.65H303.31C163.41,49.65,50,163.06,50,303V696.34c0,139.9,113.41,253.31,253.31,253.31H696.69C836.59,949.65,950,836.24,950,696.34V303C950,163.06,836.59,49.65,696.69,49.65ZM875,695.45a179.2,179.2,0,0,1-179.2,179.2H304.2A179.2,179.2,0,0,1,125,695.45V303.85a179.2,179.2,0,0,1,179.2-179.2H695.8A179.2,179.2,0,0,1,875,303.85Z"/><path d="M500,262.15c-131.17,0-237.5,106.33-237.5,237.5S368.83,737.15,500,737.15s237.5-106.33,237.5-237.5S631.17,262.15,500,262.15Zm0,393.75A156.25,156.25,0,1,1,656.25,499.65,156.26,156.26,0,0,1,500,655.9Z"/><circle cx="744.34" cy="255.83" r="56.25"/></g></svg>