<svg xmlns="http://www.w3.org/2000/svg" viewBox="0 0 84 84">
  <defs>
    <style>
      .cls-1 {
        fill: #fff;
      }
    </style>
  </defs>
  <g id="steam" transform="translate(-1449 -880)">
    <circle id="Ellipse_1" data-name="Ellipse 1" class="cls-1" cx="42" cy="42" r="42" transform="translate(1449 880)"/>
    <path id="iconmonstr-steam-5" d="M42,0A42,42,0,1,0,84,42,42,42,0,0,0,42,0Zm0,77A35.041,35.041,0,0,1,7.928,49.878L21.06,55.4a9.439,9.439,0,0,0,18.7-1.788l.021-.011,10.8-8.054A12.275,12.275,0,1,0,38.451,33.043L30.531,44.125a9.3,9.3,0,0,0-5.373,1.533L7.227,38.115A34.995,34.995,0,1,1,42,77ZM32.364,48.682l-4.627-1.943a7.212,7.212,0,0,1,2.583-.479,7.3,7.3,0,1,1-6.685,10.224l4.634,1.946a5.286,5.286,0,0,0,4.095-9.748Zm10.014-15.4a8.344,8.344,0,1,1,8.344,8.347A8.351,8.351,0,0,1,42.378,33.278Zm8.344,6.3a6.3,6.3,0,1,1,6.3-6.3A6.309,6.309,0,0,1,50.722,39.582Z" transform="translate(1449 880)"/>
  </g>
</svg>
