<svg xmlns="http://www.w3.org/2000/svg" viewBox="0 0 1000 1000"><defs><style>.cls-1{fill:#fff;}</style></defs><title>G+EArtboard 3</title><g id="Layer_5" data-name="Layer 5"><path class="cls-1" d="M977.25,518.51V977.36H23.82V23.93H977.25V483.58a46.68,46.68,0,0,1-.67-4.66A435.24,435.24,0,0,0,965,393.78Q921.08,211.53,766.25,105.61C704,63.17,635.08,37.89,560.31,28.51A476.86,476.86,0,0,0,444,28.18a469.47,469.47,0,0,0-123.9,32.2c-70.33,29-130.56,72.22-180,130Q38,309.51,26,466.21A466.31,466.31,0,0,0,41.11,625.36q38.24,140.19,148,235.56a464.07,464.07,0,0,0,159.34,91.16c16.4,5.47,35.16-1.89,34.56-24.77-.7-27-.42-54-.56-81,0-1.42,0-2.84,0-4.28-10.65,1.33-20.83,2.86-31.07,3.85-23.33,2.26-46.53,1.7-69.18-5.11-27-8.12-47.42-24.17-58.25-50.8a225.38,225.38,0,0,0-27.86-49.19c-7-9.51-14.91-18.1-25.41-24.13-5.21-3-9.87-7.09-14.32-11.19-3.24-3-6.71-6.69-4.87-11.71s6.79-5.48,11.2-6.2c17.42-2.86,33.32,1.28,47.93,10.88,16.26,10.68,28.16,25.34,38.47,41.61,14.17,22.37,33.2,38.68,59.61,44.74,25.79,5.92,50.4,1,74.23-9.26,1.07-.46,1.93-2.32,2.16-3.66,3.89-22.63,11.73-43.33,28.72-59.66.14-.14.1-.47.21-1-1.31-.2-2.59-.42-3.88-.57-30.66-3.76-60.76-9.83-89.54-21.46-48-19.41-83.26-52-102.87-100.43-16.44-40.59-21-83.14-18.72-126.48,2.08-39.76,15.81-75.37,41.4-105.93,5.3-6.32,5.73-11.16,3.51-18.75-10.91-37.26-7.23-74,5.89-110.1,2.4-6.6,2.44-6.56,9.6-6.77,14.76-.42,28.87,2.92,42.7,7.61,27.89,9.44,53.21,23.9,77.65,40,2.1,1.39,4,2.06,6.57,1.34a425.55,425.55,0,0,1,85.89-14.24,450.86,450.86,0,0,1,145.82,14,9.1,9.1,0,0,0,6.09-1.09c4.16-2.3,8-5.17,12-7.69,24.66-15.33,50.12-28.93,78.45-36.36a104.22,104.22,0,0,1,32.18-3.64c3.68.19,6.07,1.31,7.16,5.22,2.12,7.63,5,15.05,7,22.72,8,31.71,8.17,63.34-2.25,94.6-1.23,3.67-.76,5.85,1.72,8.69,26,29.81,41.11,64.56,44.41,103.94a304.32,304.32,0,0,1-11,112.27c-15.67,53.13-48,92.24-98.51,115.87-26.8,12.55-55.17,19.68-84.27,24.2-7.13,1.11-14.29,2-20.55,2.9C596,719.25,602.33,727,607,735.57c10.84,20.17,13.71,42.32,13.74,64.89,0,25.4-.2,50.8-.33,76.2-.09,17.86-.3,35.72-.28,53.58,0,11.94,6.92,20.75,18,22.89a34.81,34.81,0,0,0,18.74-1.62q181.71-65.43,269.91-237.25c28.57-55.71,44.49-115.16,49-177.63C976.21,530.59,976.75,524.55,977.25,518.51Z"/><path d="M977.25,518.51c-.5,6-1,12.08-1.48,18.12-4.55,62.47-20.47,121.92-49,177.63Q838.68,886,656.82,951.51a34.81,34.81,0,0,1-18.74,1.62c-11.06-2.14-18-11-18-22.89,0-17.86.19-35.72.28-53.58.13-25.4.35-50.8.33-76.2,0-22.57-2.9-44.72-13.74-64.89-4.64-8.62-11-16.32-16.53-24.4,6.26-.88,13.42-1.79,20.55-2.9,29.1-4.52,57.47-11.65,84.27-24.2,50.47-23.63,82.84-62.74,98.51-115.87a304.32,304.32,0,0,0,11-112.27c-3.3-39.38-18.37-74.13-44.41-103.94-2.48-2.84-3-5-1.72-8.69,10.42-31.26,10.21-62.89,2.25-94.6C759,241,756.07,233.61,754,226c-1.09-3.91-3.48-5-7.16-5.22a104.22,104.22,0,0,0-32.18,3.64c-28.33,7.43-53.79,21-78.45,36.36-4,2.52-7.87,5.39-12,7.69a9.1,9.1,0,0,1-6.09,1.09,450.86,450.86,0,0,0-145.82-14,425.55,425.55,0,0,0-85.89,14.24c-2.61.72-4.47.05-6.57-1.34-24.44-16.13-49.76-30.59-77.65-40-13.83-4.69-27.94-8-42.7-7.61-7.16.21-7.2.17-9.6,6.77-13.12,36.1-16.8,72.84-5.89,110.1,2.22,7.59,1.79,12.43-3.51,18.75-25.59,30.56-39.32,66.17-41.4,105.93-2.27,43.34,2.28,85.89,18.72,126.48,19.61,48.4,54.85,81,102.87,100.43,28.78,11.63,58.88,17.7,89.54,21.46,1.29.15,2.57.37,3.88.57-.11.52-.07.85-.21,1-17,16.33-24.83,37-28.72,59.66-.23,1.34-1.09,3.2-2.16,3.66-23.83,10.27-48.44,15.18-74.23,9.26-26.41-6.06-45.44-22.37-59.61-44.74-10.31-16.27-22.21-30.93-38.47-41.61-14.61-9.6-30.51-13.74-47.93-10.88-4.41.72-9.38,1.28-11.2,6.2s1.63,8.72,4.87,11.71c4.45,4.1,9.11,8.2,14.32,11.19,10.5,6,18.39,14.62,25.41,24.13A225.38,225.38,0,0,1,224,790c10.83,26.63,31.21,42.68,58.25,50.8,22.65,6.81,45.85,7.37,69.18,5.11,10.24-1,20.42-2.52,31.07-3.85,0,1.44,0,2.86,0,4.28.14,27-.14,54,.56,81,.6,22.88-18.16,30.24-34.56,24.77a464.07,464.07,0,0,1-159.34-91.16q-109.46-95.4-148-235.56A466.31,466.31,0,0,1,26,466.21Q37.95,309.67,140,190.35c49.45-57.75,109.68-100.94,180-130A469.47,469.47,0,0,1,444,28.18a476.86,476.86,0,0,1,116.36.33c74.77,9.38,143.72,34.66,205.94,77.1Q921,211.2,965,393.78a435.24,435.24,0,0,1,11.57,85.14,46.68,46.68,0,0,0,.67,4.66Z"/></g></svg>