<svg xmlns="http://www.w3.org/2000/svg" viewBox="0 0 84.193 84.193">
  <defs>
    <style>
      .cls-1 {
        fill: #fff;
      }
    </style>
  </defs>
  <g id="instagram" transform="translate(-2.5 -2.5)">
    <circle id="Ellipse_2" data-name="Ellipse 2" cx="42.096" cy="42.096" r="42.096" transform="translate(2.5 2.5)"/>
    <path id="Path_6" data-name="Path 6" class="cls-1" d="M148.389,123.5c-6.778,0-7.641.028-10.3.156a18.282,18.282,0,0,0-6.056,1.16A12.092,12.092,0,0,0,127.6,127.7a12.464,12.464,0,0,0-2.887,4.429,18,18,0,0,0-1.16,6.056c-.113,2.66-.156,3.509-.156,10.3s.028,7.627.156,10.3a18.282,18.282,0,0,0,1.16,6.056,12.092,12.092,0,0,0,2.887,4.429,12.275,12.275,0,0,0,4.429,2.887,18.36,18.36,0,0,0,6.056,1.16c2.66.127,3.509.156,10.3.156s7.627-.028,10.3-.156a18.453,18.453,0,0,0,6.07-1.16,12.225,12.225,0,0,0,4.415-2.887,12.464,12.464,0,0,0,2.887-4.429,18.652,18.652,0,0,0,1.16-6.056c.113-2.66.156-3.509.156-10.3s-.028-7.627-.156-10.3a18.652,18.652,0,0,0-1.16-6.056,12.813,12.813,0,0,0-7.316-7.316,18.453,18.453,0,0,0-6.07-1.16c-2.66-.127-3.509-.156-10.287-.156Zm-2.236,4.5h2.236c6.665,0,7.457.028,10.089.141a14.019,14.019,0,0,1,4.641.863,8.263,8.263,0,0,1,4.74,4.74,13.934,13.934,0,0,1,.863,4.641c.113,2.632.142,3.424.142,10.089s-.028,7.457-.142,10.089a14.019,14.019,0,0,1-.863,4.641,7.766,7.766,0,0,1-1.868,2.872,7.654,7.654,0,0,1-2.872,1.868,13.934,13.934,0,0,1-4.641.863c-2.632.113-3.424.141-10.089.141s-7.457-.028-10.089-.141a14.02,14.02,0,0,1-4.641-.863,8.263,8.263,0,0,1-4.74-4.74,13.934,13.934,0,0,1-.863-4.641c-.113-2.632-.141-3.424-.141-10.089s.028-7.457.141-10.089a14.02,14.02,0,0,1,.863-4.641,8.263,8.263,0,0,1,4.74-4.74,13.934,13.934,0,0,1,4.641-.863c2.306-.113,3.2-.141,7.853-.141Zm15.565,4.146a3,3,0,1,0,3,3,3,3,0,0,0-3-3Zm-13.329,3.509a12.82,12.82,0,1,0,12.82,12.82,12.818,12.818,0,0,0-12.82-12.82Zm0,4.5a8.32,8.32,0,1,1-8.32,8.32A8.316,8.316,0,0,1,148.389,140.155Z" transform="translate(-103.793 -103.878)"/>
  </g>
</svg>
