<svg xmlns="http://www.w3.org/2000/svg" viewBox="0 0 1000 1000"><title>InstaArtboard 2</title><g id="Layer_4" data-name="Layer 4"><path d="M657.35,140H342.65C230.73,140,140,230.73,140,342.65v314.7C140,769.27,230.73,860,342.65,860h314.7C769.27,860,860,769.27,860,657.35V342.65C860,230.73,769.27,140,657.35,140ZM800,656.64A143.35,143.35,0,0,1,656.64,800H343.36A143.35,143.35,0,0,1,200,656.64V343.36A143.35,143.35,0,0,1,343.36,200H656.64A143.35,143.35,0,0,1,800,343.36Z"/><path d="M500,310c-104.93,0-190,85.07-190,190s85.07,190,190,190,190-85.07,190-190S604.93,310,500,310Zm0,315A125,125,0,1,1,625,500,125,125,0,0,1,500,625Z"/><circle cx="695.47" cy="304.95" r="45"/></g></svg>