<svg id="Layer_1" data-name="Layer 1" xmlns="http://www.w3.org/2000/svg" viewBox="0 0 1000 1000"><defs><style>.cls-1{stroke:#000;stroke-miterlimit:10;}</style></defs><title>RedditArtboard 1</title><polyline class="cls-1" points="524.27 329.28 568.69 100.36 730.42 132.25 739.53 100.36 541.93 60.5 482.57 329.61"/><circle class="cls-1" cx="802.28" cy="133.1" r="72.61"/><circle class="cls-1" cx="121.86" cy="501.36" r="105.64"/><circle class="cls-1" cx="883.46" cy="499.65" r="105.64"/><path d="M502.77,329.28c-234.41,0-424.44,133.25-424.44,297.61s190,297.62,424.44,297.62S927.21,791.26,927.21,626.89,737.18,329.28,502.77,329.28Zm-247.14,248a77.62,77.62,0,1,1,77.62,77.62A77.62,77.62,0,0,1,255.63,577.27ZM502.77,837.8c-143.64,0-212.54-68.33-181.79-92.65s58.08,51.65,189.63,51.65,148.57-72.73,172.54-45.55C708.78,780.29,626.79,837.78,502.77,837.8ZM671,654.89a77.62,77.62,0,1,1,77.62-77.62A77.62,77.62,0,0,1,671,654.89Z"/></svg>