<?xml version="1.0" standalone="no"?>
<!DOCTYPE svg PUBLIC "-//W3C//DTD SVG 20010904//EN"
 "http://www.w3.org/TR/2001/REC-SVG-20010904/DTD/svg10.dtd">
<svg version="1.0" xmlns="http://www.w3.org/2000/svg"
 width="3256.000000pt" height="3256.000000pt" viewBox="0 0 3256.000000 3256.000000"
 preserveAspectRatio="xMidYMid meet">
<metadata>
Created by potrace 1.11, written by Peter Selinger 2001-2013
</metadata>
<g transform="translate(0.000000,3256.000000) scale(0.100000,-0.100000)"
fill="#000000" stroke="none">
<path d="M3418 26612 l-3387 -2917 0 -10336 -1 -10336 12883 0 12883 0 279
275 c445 437 1577 1554 1965 1937 195 193 517 510 715 705 198 196 531 524
740 730 209 206 533 526 720 710 352 348 814 803 1425 1405 195 193 475 469
623 615 l267 264 0 9933 0 9933 -12862 -1 -12863 -1 -3387 -2916z m26595 409
c16 -1 17 -396 17 -8150 l0 -8149 -247 -242 c-243 -238 -1202 -1183 -1903
-1875 -195 -193 -519 -512 -720 -710 -201 -198 -534 -526 -740 -730 -206 -203
-528 -521 -715 -705 -187 -184 -475 -469 -640 -633 l-300 -297 -11118 0
-11117 0 0 8500 0 8499 2603 2242 c1431 1233 2610 2244 2619 2248 12 4 22150
6 22261 2z"/>
<path d="M12127 25944 c-1 -1 -85 -5 -187 -8 -102 -4 -201 -8 -220 -11 -19 -2
-75 -7 -125 -10 -49 -3 -103 -8 -120 -10 -16 -2 -57 -7 -90 -10 -33 -3 -71 -8
-85 -10 -38 -6 -180 -26 -221 -31 -20 -3 -117 -20 -215 -39 -172 -33 -195 -37
-256 -51 -15 -3 -31 -6 -35 -6 -5 0 -18 -4 -31 -9 -13 -5 -37 -11 -54 -14 -18
-3 -75 -18 -127 -32 -846 -227 -1663 -619 -2388 -1145 -67 -48 -128 -94 -135
-101 -7 -7 -28 -23 -46 -36 -50 -35 -284 -231 -387 -323 -170 -154 -543 -537
-629 -646 -11 -15 -28 -34 -36 -43 -40 -42 -189 -228 -291 -364 -65 -87 -256
-364 -294 -427 -242 -402 -271 -453 -397 -705 -254 -507 -453 -1046 -589
-1595 -22 -87 -42 -175 -45 -195 -3 -21 -8 -41 -10 -44 -2 -3 -6 -21 -9 -40
-3 -19 -14 -77 -25 -129 -10 -52 -21 -113 -24 -135 -4 -23 -8 -52 -11 -65 -6
-33 -33 -232 -40 -295 -3 -27 -7 -61 -10 -75 -2 -14 -7 -54 -10 -90 -3 -36 -8
-85 -10 -110 -5 -50 -13 -156 -21 -305 -7 -122 -7 -675 0 -800 10 -179 20
-313 31 -410 3 -22 7 -60 9 -85 14 -124 17 -147 21 -175 2 -16 7 -50 10 -75 3
-25 10 -67 15 -95 5 -27 12 -67 15 -88 4 -31 33 -179 71 -367 3 -14 16 -70 30
-125 14 -55 26 -107 28 -115 2 -8 10 -35 17 -60 7 -25 14 -51 15 -58 1 -7 12
-46 24 -85 12 -40 24 -80 25 -89 6 -27 105 -320 121 -355 8 -17 14 -35 14 -40
0 -14 142 -358 210 -508 75 -165 224 -459 305 -600 32 -55 69 -120 83 -145 14
-25 33 -56 42 -70 10 -14 56 -87 104 -162 200 -314 422 -606 715 -938 86 -97
435 -446 531 -531 149 -131 176 -155 219 -189 23 -19 53 -43 64 -54 45 -38
235 -184 328 -251 128 -92 120 -87 240 -166 57 -37 109 -72 114 -76 13 -11
261 -159 350 -210 509 -291 1103 -542 1660 -701 125 -36 358 -96 410 -106 11
-2 76 -16 145 -30 106 -22 245 -46 400 -70 33 -5 214 -28 325 -41 28 -3 82 -8
120 -11 39 -2 88 -6 110 -8 221 -25 857 -25 1145 -1 188 16 257 22 310 30 19
2 62 7 95 11 33 3 67 7 75 9 14 2 67 11 133 21 50 7 81 13 167 28 296 53 611
131 902 223 82 25 149 45 151 42 3 -3 247 -647 337 -889 9 -25 67 -178 129
-340 62 -162 139 -367 173 -455 33 -88 77 -205 98 -260 21 -55 55 -145 76
-200 20 -55 43 -113 50 -130 7 -16 32 -84 57 -150 48 -131 410 -1086 426
-1126 5 -13 24 -62 41 -109 17 -47 35 -94 40 -105 4 -11 21 -54 35 -95 15 -41
33 -88 40 -105 7 -16 36 -93 65 -170 28 -77 56 -151 61 -164 5 -13 30 -78 55
-145 55 -145 108 -285 133 -346 l17 -45 1449 0 1449 0 63 190 c34 105 63 190
64 190 0 0 2 7 4 15 4 19 621 1881 642 1938 9 23 17 41 19 39 2 -2 177 -527
389 -1168 212 -640 390 -1174 395 -1186 l9 -21 1452 1 1452 2 24 70 c13 39 25
77 28 85 2 8 53 164 113 345 300 909 407 1231 597 1810 113 347 210 639 215
650 5 11 59 173 120 360 61 187 175 536 254 775 246 743 632 1914 711 2155 42
127 164 498 272 825 108 327 198 600 199 605 2 6 53 161 114 345 61 184 208
630 326 990 119 360 222 671 229 690 7 19 62 184 121 365 59 182 119 366 134
411 l28 81 -1999 0 -1999 0 -239 -726 c-132 -399 -311 -940 -396 -1201 -86
-261 -160 -484 -165 -495 -5 -11 -37 -109 -73 -219 -35 -109 -68 -193 -71
-187 -4 6 -55 154 -112 329 -157 477 -719 2176 -776 2348 l-50 151 -1290 -1
c-709 -1 -1295 2 -1301 6 -7 4 -11 421 -11 1400 l-1 1393 -2940 0 -2940 0 0
-1732 0 -1733 410 0 410 0 -25 -20 c-39 -31 -208 -143 -280 -185 -232 -135
-565 -256 -795 -289 -23 -4 -50 -8 -60 -10 -25 -5 -121 -15 -205 -22 -128 -10
-420 -4 -508 10 -15 3 -52 8 -82 11 -30 3 -62 8 -70 10 -8 2 -31 7 -50 10 -19
3 -64 13 -100 21 -36 9 -72 17 -80 19 -186 43 -507 182 -705 304 -82 50 -249
171 -320 231 -113 96 -312 312 -385 420 -13 19 -27 37 -30 40 -14 11 -121 192
-168 285 -143 280 -208 484 -267 830 -2 17 -7 64 -11 105 -3 41 -8 86 -10 100
-5 32 -4 340 1 400 2 25 6 77 10 115 41 496 255 1035 562 1418 60 75 230 250
295 303 220 183 458 320 716 414 84 30 280 85 342 95 19 3 60 10 90 15 190 32
628 34 792 5 13 -3 42 -6 63 -9 48 -5 244 -42 300 -57 22 -6 47 -12 55 -14 66
-13 265 -76 385 -122 297 -114 551 -284 849 -565 16 -16 32 -28 35 -28 3 0 49
61 101 135 52 75 121 173 153 218 69 97 108 154 122 175 6 9 16 23 22 31 7 9
71 99 142 201 71 102 154 218 183 259 29 41 74 104 99 140 61 89 431 615 541
771 49 69 93 132 98 140 10 15 329 468 370 525 11 17 49 69 83 117 62 88 358
509 452 643 80 116 314 447 393 558 39 56 72 106 72 112 -1 5 -24 29 -53 53
-29 23 -65 55 -82 70 -16 15 -66 57 -110 92 -44 36 -82 68 -85 71 -14 16 -221
165 -326 234 -66 43 -131 86 -146 97 -15 10 -30 18 -32 18 -3 0 -31 16 -61 35
-107 69 -423 234 -648 339 -55 25 -101 46 -103 46 -2 0 -28 11 -59 25 -31 15
-97 42 -148 61 -51 19 -101 39 -112 44 -35 16 -326 117 -435 150 -58 17 -125
38 -150 47 -205 68 -721 190 -915 217 -22 3 -85 12 -140 20 -55 8 -125 17
-155 21 -30 3 -67 8 -83 11 -15 2 -53 6 -85 9 -31 2 -77 6 -102 9 -43 5 -179
15 -285 22 -143 8 -742 23 -748 18z m688 -598 c147 -9 251 -17 285 -21 19 -3
62 -7 95 -10 158 -15 241 -26 480 -65 237 -39 396 -76 685 -160 96 -28 182
-53 190 -55 46 -11 476 -162 572 -201 439 -176 919 -435 1250 -674 l37 -27
-51 -74 c-28 -41 -152 -217 -274 -391 -224 -317 -260 -368 -312 -443 -30 -43
-344 -490 -397 -565 -25 -36 -212 -301 -444 -631 -14 -20 -93 -132 -176 -250
-206 -292 -211 -300 -358 -509 -71 -102 -135 -191 -142 -198 -10 -11 -23 -6
-72 27 -153 102 -425 228 -660 306 -118 39 -391 114 -473 128 -55 10 -146 27
-165 31 -12 2 -48 7 -80 11 -33 4 -68 9 -77 11 -9 1 -52 6 -95 9 -43 4 -94 9
-113 11 -44 4 -389 4 -450 0 -171 -14 -205 -18 -366 -47 -779 -138 -1486 -613
-1911 -1285 -146 -230 -273 -505 -357 -771 -33 -102 -79 -283 -91 -348 -2 -16
-7 -41 -10 -55 -11 -59 -15 -77 -20 -115 -2 -22 -7 -56 -10 -75 -32 -244 -38
-663 -10 -850 2 -14 6 -47 10 -75 43 -344 138 -657 301 -990 88 -182 101 -203
219 -380 318 -473 773 -850 1310 -1084 55 -24 115 -50 133 -58 184 -80 594
-179 822 -199 180 -15 232 -17 365 -17 134 0 328 9 374 18 9 2 44 6 76 10 33
4 69 9 80 11 25 5 65 12 108 20 60 10 268 65 345 90 151 51 390 154 492 214
344 199 516 328 755 565 131 131 181 186 299 335 33 41 63 77 66 80 3 3 19 23
35 45 17 22 32 42 35 45 3 3 51 62 108 133 l103 127 -38 0 c-21 1 -370 1 -775
1 -687 0 -738 1 -739 17 -4 100 0 2272 4 2278 4 7 4649 12 4702 5 7 -1 10
-663 9 -1983 l0 -1983 -91 -272 -91 -272 -107 -156 c-240 -354 -442 -604 -679
-840 -202 -201 -275 -269 -481 -446 -179 -153 -535 -429 -554 -429 -5 0 -11
-4 -13 -8 -4 -11 -314 -226 -400 -277 -9 -5 -76 -46 -148 -90 -143 -88 -175
-107 -235 -140 -22 -12 -60 -33 -85 -47 -124 -69 -182 -100 -390 -204 -310
-155 -424 -200 -768 -305 -270 -81 -687 -178 -882 -204 -25 -3 -56 -8 -70 -10
-14 -2 -45 -7 -70 -10 -25 -4 -56 -8 -70 -10 -29 -4 -102 -12 -180 -20 -30 -3
-71 -8 -90 -10 -19 -3 -78 -7 -130 -11 -52 -3 -122 -7 -155 -9 -81 -5 -579 -6
-685 -1 -103 5 -246 15 -320 22 -91 8 -221 23 -260 29 -14 2 -47 6 -75 10 -27
3 -79 10 -115 16 -36 6 -76 12 -90 14 -49 7 -294 55 -329 65 -20 5 -48 11 -63
14 -139 24 -748 207 -853 256 -11 5 -65 27 -120 49 -104 40 -205 82 -290 121
-115 51 -463 225 -542 271 -47 27 -87 49 -89 49 -2 0 -61 35 -131 77 -288 174
-674 448 -883 629 -286 247 -518 474 -705 689 -39 44 -72 82 -75 85 -26 25
-207 252 -287 360 -152 205 -390 567 -435 660 -7 14 -29 52 -48 85 -105 175
-315 620 -426 903 -42 107 -171 483 -179 521 -2 9 -20 75 -40 148 -20 72 -38
140 -40 150 -2 10 -12 59 -24 108 -24 109 -58 277 -66 325 -3 19 -10 60 -15
90 -5 30 -11 73 -15 95 -3 22 -7 51 -10 65 -2 14 -7 50 -10 81 -3 31 -7 65 -9
76 -3 11 -7 57 -11 104 -4 46 -8 91 -10 99 -2 14 -13 181 -20 310 -5 97 -6
561 -1 665 7 142 16 284 21 325 2 19 6 64 10 100 3 36 8 81 10 100 10 80 26
207 31 240 3 19 7 50 10 69 6 47 14 93 19 111 2 8 6 32 9 53 4 21 13 73 22
115 9 42 18 88 20 102 3 14 7 33 10 42 3 10 7 30 10 45 3 16 23 98 45 183 22
85 42 162 44 170 37 155 221 669 305 855 10 22 37 83 60 135 76 173 249 509
337 655 7 11 15 27 19 35 4 8 20 34 36 57 15 23 28 44 28 47 0 18 370 560 400
586 3 3 21 25 40 50 401 522 959 1039 1525 1415 318 211 778 460 1085 588 63
27 124 52 135 58 166 76 730 255 925 294 46 9 64 13 130 28 36 9 85 18 110 22
24 4 47 8 50 10 3 2 24 6 46 9 22 4 51 8 64 11 13 3 42 7 65 10 22 4 51 8 65
10 14 2 45 7 70 10 25 3 56 8 70 10 25 4 82 10 190 21 30 3 73 7 95 9 22 2 90
7 150 11 61 3 111 8 113 9 5 5 825 -4 907 -9z m8439 -8896 c6 -6 331 -987 821
-2475 119 -363 221 -669 225 -680 5 -11 78 -230 162 -487 84 -257 156 -464
159 -460 3 4 11 21 17 37 11 30 507 1535 769 2330 74 226 139 422 145 437 5
15 11 30 12 33 0 3 96 291 211 638 l210 632 1383 0 c760 0 1382 0 1382 -1 0
-1 -108 -330 -304 -924 -95 -289 -244 -741 -331 -1005 -86 -264 -160 -487
-163 -495 -3 -8 -6 -17 -7 -20 -1 -5 -320 -970 -526 -1595 -66 -198 -205 -621
-311 -940 -105 -319 -241 -733 -303 -920 -62 -187 -221 -671 -354 -1075 -133
-404 -275 -834 -315 -955 -119 -356 -420 -1270 -421 -1275 0 -3 -15 -48 -33
-100 l-32 -95 -1028 0 c-780 -1 -1029 2 -1034 11 -6 9 -367 1087 -382 1139 -2
6 -6 17 -9 25 -3 8 -65 195 -137 415 -72 220 -135 409 -140 420 -8 20 -382
1152 -386 1170 -1 6 -38 115 -81 243 l-79 232 -207 -622 c-114 -343 -380
-1147 -593 -1788 -212 -641 -392 -1183 -400 -1205 l-15 -40 -1034 0 -1034 0
-30 75 c-30 77 -184 483 -342 905 -50 132 -94 249 -99 260 -5 11 -35 88 -65
170 -31 83 -74 195 -95 250 -21 55 -86 228 -145 385 -58 157 -111 294 -116
305 -5 11 -41 106 -79 210 -39 105 -75 199 -80 210 -9 22 -60 154 -95 250 -12
33 -54 146 -94 250 -40 105 -100 262 -133 350 -33 88 -70 187 -83 220 -13 33
-33 87 -45 120 -12 33 -25 69 -30 80 -23 51 -149 392 -152 409 -2 15 18 28
107 68 283 126 621 305 855 451 76 47 350 227 365 239 6 4 64 47 130 95 66 47
122 89 125 92 3 3 23 19 45 36 22 16 45 34 52 40 6 5 24 20 40 32 15 12 38 30
49 40 12 10 43 36 70 58 52 42 193 166 258 225 21 19 100 94 175 166 75 73
140 133 146 134 10 3 57 -74 260 -419 l120 -204 173 524 c95 288 238 722 318
964 80 242 156 458 168 480 13 22 65 112 117 200 l94 160 2 157 1 157 202 613
c111 337 206 620 210 628 7 13 113 15 883 15 482 0 878 -3 881 -5z"/>
</g>
</svg>
